<?xml version="1.0" encoding="utf-8"?>
<!-- Generator: Adobe Illustrator 25.4.1, SVG Export Plug-In . SVG Version: 6.00 Build 0)  -->
<svg version="1.1" id="Layer_1" xmlns="http://www.w3.org/2000/svg" xmlns:xlink="http://www.w3.org/1999/xlink" x="0px" y="0px"
	 viewBox="0 0 376.4 156.5" style="enable-background:new 0 0 376.4 156.5;" xml:space="preserve">
<style type="text/css">
	.st0{fill:#FFFFFF;}
</style>
<polygon class="st0" points="0,0 0,156.5 30.8,156.5 30.8,93.1 74.9,154 119.1,93.1 119.1,156.5 149.9,156.5 149.9,0 74.9,102.8 "/>
<path class="st0" d="M235.4,78.2c0-12.8-3.6-24.9-12.8-34.1s-21.2-12.8-34-12.8h-7.2v93.9h7.5c12.8,0,24.7-3.6,33.9-12.7
	S235.4,91.2,235.4,78.2z"/>
<path class="st0" d="M360.3,16.1C350.1,5.6,336.1-0.2,321.5,0H192.7c20,0.9,38.7,8.6,53.1,23c14,14,21,34.7,21,55.3l0,0
	c0,20.6-7,41.3-21,55.3c-14.4,14.4-33.1,22-53.1,23h105.5v-47h23.4c14.6,0.2,28.6-5.6,38.7-16c10.5-10.1,16.4-24.1,16.1-38.7
	C376.6,40.3,370.8,26.3,360.3,16.1z M338.1,71.5c-4.3,4.5-10.4,7-16.6,6.9l-23.4-0.1v-47h23.4c6.3-0.1,12.3,2.4,16.6,7
	c4.5,4.4,7,10.4,6.9,16.6C345.1,61.1,342.6,67.1,338.1,71.5z"/>
</svg>
