<?xml version="1.0" encoding="utf-8"?>
<!-- Generator: Adobe Illustrator 25.4.1, SVG Export Plug-In . SVG Version: 6.00 Build 0)  -->
<svg version="1.1" id="Layer_1" xmlns="http://www.w3.org/2000/svg" xmlns:xlink="http://www.w3.org/1999/xlink" x="0px" y="0px"
	 viewBox="0 0 122.9 122.9" style="enable-background:new 0 0 122.9 122.9;" xml:space="preserve">
<style type="text/css">
	.st0{fill:#FFFFFF;}
	.st1{fill:#27B961;}
</style>
<path class="st0" d="M89.1,74.9L89.1,74.9l-10.8-6.4l-0.2-0.1c-3.2-1.5-5.6,1.6-7.4,4c-0.4,0.5-0.8,1-1.3,1.5
	c-0.4,0.4-0.9,0.8-1.4,1c-0.3,0.2-0.7,0.2-1,0c-4.4-2.1-8.3-5-11.6-8.5c-2.9-3.1-5.3-6.5-7.3-10.2v0.2c-0.6-1.6,1.2-2.9,2.7-4
	c0.5-0.4,0.9-0.7,1.3-1c1.2-0.7,2.1-1.8,2.7-3c0.6-1.3,0.3-2.8-0.6-3.9l-6.9-11.7c-0.2-0.4-0.6-0.7-1.1-0.7
	c-3.4-0.4-6.7,0.5-9.4,2.5c-2.6,2.2-4.3,5.4-4.7,8.8c-1,6.4,0.8,13.1,4.3,19.4c4.2,7.4,9.8,13.8,16.6,18.9c1.7,1.2,3.4,2.3,5,3.3
	l0.4,0.2c3,2,6.3,3.6,9.8,4.8c3.2,1,6.5,1.3,9.8,0.8c2.2-0.2,4.3-0.8,6.3-1.7c2.2-0.9,4-2.5,5.2-4.6c1-1.7,1.5-3.5,1.6-5.4
	C91.2,77.5,90.4,75.9,89.1,74.9z"/>
<path class="st1" d="M61.4,0C45.1,0,29.5,6.5,18,18S0,45.2,0,61.5c0,33.9,27.5,61.4,61.5,61.4c33.9,0,61.4-27.6,61.4-61.5
	S95.3,0,61.4,0z M89.5,84.5c-1.2,2.1-3,3.7-5.2,4.6c-2,0.9-4.1,1.5-6.3,1.7c-3.3,0.5-6.6,0.2-9.8-0.8c-3.5-1.2-6.8-2.8-9.8-4.8
	L58,85c-1.6-1-3.3-2.1-5-3.3c-6.8-5.1-12.4-11.5-16.6-18.9c-3.5-6.3-5.3-13-4.3-19.4c0.4-3.4,2.1-6.6,4.7-8.8c2.7-2,6-2.9,9.4-2.5
	c0.5,0,0.9,0.3,1.1,0.7l6.9,11.7c0.9,1.1,1.2,2.6,0.6,3.9c-0.6,1.2-1.5,2.3-2.7,3c-0.4,0.3-0.8,0.6-1.3,1c-1.5,1.1-3.3,2.4-2.7,4
	v-0.2c2,3.7,4.4,7.1,7.3,10.2c3.3,3.5,7.2,6.4,11.6,8.5c0.3,0.2,0.7,0.2,1,0c0.5-0.2,1-0.6,1.4-1c0.5-0.5,0.9-1,1.3-1.5
	c1.8-2.4,4.2-5.5,7.4-4l0.2,0.1L89,74.8l0.1,0.1c1.3,1,2.1,2.6,2,4.2C91,81,90.5,82.8,89.5,84.5z"/>
</svg>
